<svg viewBox="0 0 122 116" fill="none" xmlns="http://www.w3.org/2000/svg">
<mask id="mask0_1_19" style="mask-type:alpha" maskUnits="userSpaceOnUse" x="0" y="0" width="122" height="116">
<rect x="0.731689" y="14.5557" width="109" height="102" transform="rotate(-7.35424 0.731689 14.5557)" fill="#D9D9D9"/>
</mask>
<g mask="url(#mask0_1_19)">
<path fill-rule="evenodd" clip-rule="evenodd" d="M96.6546 77.1219C95.2113 73.5158 94.1225 72.0484 92.2463 70.9724C90.4915 69.966 88.0268 69.2486 84.5263 68.944C80.9004 68.7818 80.5621 66.9522 79.2908 64.1054C78.9165 63.2486 77.6006 63.1776 77.1287 63.8909C77.0396 63.8166 76.9481 63.7498 76.8547 63.6909C76.8754 63.2565 76.1 62.1194 76.0682 61.7105C75.7367 57.4434 74.0751 55.4936 70.5113 55.149C69.7363 55.0739 64.6099 55.6326 63.9021 55.9302C60.8077 57.2314 58.0122 60.4554 58.9335 63.7856C58.0961 65.2317 57.214 66.1622 55.7147 66.7869C53.3343 67.4064 58.9742 101.528 65.8278 121.522C68.7683 130.101 109.953 109.538 107.434 105.377C107.606 104.532 106.988 103.708 107.108 102.843C107.194 102.218 107.583 101.913 107.718 101.287C107.907 100.406 107.437 99.3183 106.99 98.502C106.797 98.0914 107.129 97.5798 107.181 97.1286C107.43 95.0002 106.273 95.3343 105.245 94.0656C105.257 94.0597 105.351 93.0471 105.351 93.0522C105.39 92.3328 104.948 91.4749 104.588 90.9252C104.344 90.5536 103.9 90.3588 103.497 90.4571C103.728 89.0044 104.099 87.7725 104.486 86.3518C105.171 83.8471 105.793 81.2391 106.94 78.9039C107.409 77.9478 106.834 77.1983 105.882 77.2601C102.802 77.4603 99.7245 77.4106 96.6546 77.1219Z" fill="white"/>
<path fill-rule="evenodd" clip-rule="evenodd" d="M58.81 66.4684L81.4517 67.4962L92.2473 70.9719L94.0739 72.0373L86.4745 90.7237L71.6278 95.4599L69.0525 106.02L71.3069 117.259L95.6614 111.117L106.167 108.473L109.982 118.273L110.067 122.497L109.68 124.694L84.1512 135.248C84.1512 135.248 70.5137 135.681 68.1261 135.989C65.7385 136.297 48.4573 140.295 48.4573 140.295L44.3512 140.385C44.3512 140.385 34.171 132.098 32.3474 128.916C30.5237 125.734 24.8812 105.691 24.8812 105.691L24.807 102.51L29.9781 81.588C29.9781 81.588 30.8908 80.5159 31.988 78.7493C33.0851 76.9827 58.81 66.4684 58.81 66.4684Z" fill="#9DDADB"/>
<path fill-rule="evenodd" clip-rule="evenodd" d="M102.594 90.0748C100.606 90.4347 98.6647 91.1689 96.966 92.2643C96.271 92.7131 95.6658 93.3096 95.5776 94.1737C95.5336 94.6148 95.615 95.0542 95.7237 95.48C95.8058 95.8025 95.8697 96.2195 96.1831 96.4046C96.2365 96.4359 96.2921 96.4579 96.3489 96.4719C95.72 96.8593 95.131 97.3035 94.6141 97.7493C94.1417 98.157 93.6786 98.7508 93.5167 99.3742C93.4882 99.3095 93.4602 99.2493 93.4326 99.1921C92.8716 98.0439 92.1189 97.1413 91.048 96.6073C90.8835 96.214 89.4559 94.6138 88.3488 94.824C87.1363 95.0534 86.1652 95.2696 85.1328 95.9739C84.729 96.017 84.3278 96.0744 83.9329 96.1433C83.8648 96.1544 83.8801 96.2468 83.9462 96.246C84.2737 96.2453 84.6018 96.2489 84.9309 96.2603C85.7126 96.284 86.4964 96.341 87.2684 96.4377C88.1946 96.5539 89.1517 96.667 90.0416 96.9639C91.7676 97.5412 93.0386 99.4686 93.0632 101.285C93.0669 101.583 93.0678 102.485 92.6486 102.446C92.2944 102.413 92.0648 101.713 91.9102 101.462C91.4968 100.797 90.8567 100.411 90.12 100.189C89.2548 99.9266 88.3476 99.7912 87.4626 99.6116C86.9614 99.5091 86.4601 99.4065 85.9578 99.3053C85.4438 99.2 84.9458 99.0275 84.4369 99.2132C84.1294 99.3258 84.1417 99.708 84.3473 99.9014C84.6602 100.196 85.0745 100.242 85.4816 100.327C86.019 100.44 86.5552 100.552 87.0915 100.665C87.9205 100.838 88.7817 100.964 89.5988 101.202L89.5818 101.26C89.5165 101.25 89.4506 101.323 89.4729 101.399C89.6809 102.098 89.9486 102.902 89.862 103.641C89.794 104.226 89.3773 104.918 88.7091 104.835C88.7987 104.729 88.8156 104.564 88.728 104.425C88.4012 103.911 84.7674 102.183 84.5719 103.024C84.5657 103.054 84.5992 103.071 84.623 103.064C84.8711 102.978 85.3543 103.357 85.5762 103.469C85.8965 103.63 86.2206 103.785 86.5385 103.952C86.8862 104.134 87.2276 104.327 87.5623 104.53C87.8252 104.689 88.0306 104.863 88.3166 104.924C88.182 105.011 88.0846 105.152 88.0571 105.321C87.9881 105.76 87.796 106.149 87.4062 106.389C86.9975 106.639 86.4928 106.58 86.042 106.686C85.4277 106.829 84.9229 107.195 84.5239 107.677C83.6862 108.689 83.4106 110.318 82.1328 110.91C81.3695 111.264 80.4662 111.22 79.6459 111.21C78.73 111.199 77.8408 111.212 76.9518 111.461C76.1007 111.7 75.3195 112.106 74.5744 112.575C73.8759 113.014 73.105 113.508 72.5122 114.105C72.3225 113.705 72.1322 113.308 71.9732 112.895C71.598 111.917 71.3328 110.905 71.1668 109.872C71.0096 108.888 70.9368 107.889 70.8947 106.894C70.8734 106.398 70.8765 105.9 70.855 105.404C70.85 105.279 70.8551 105.143 70.8546 105.009C71.9414 104.163 73.1087 103.471 74.2841 102.763C74.2874 102.762 74.2904 102.759 74.2936 102.758C74.3299 102.735 74.3653 102.713 74.4018 102.692C74.4004 102.69 74.399 102.688 74.3965 102.686C74.5276 102.58 74.612 102.451 74.6548 102.314C76.2967 100.891 77.5878 99.0718 78.4622 97.0312C78.8286 96.176 79.1736 95.2934 79.6974 94.5179C80.2548 93.6907 80.9737 93.1491 81.9042 92.7957C82.9919 92.3816 84.1277 92.0711 85.2658 91.8311C85.8874 91.7005 86.5792 91.5326 87.264 91.4476C87.7412 91.3893 88.2132 91.3699 88.6567 91.4327C89.3138 91.5252 89.7469 91.9597 90.2083 92.396C90.6494 92.8149 91.0885 93.2351 91.5068 93.677C91.903 94.0959 92.2826 94.5327 92.6232 94.9982C92.8275 95.277 93.0208 95.5663 93.1911 95.8685C93.2509 95.9753 93.327 96.0955 93.3696 96.209C93.4125 96.3235 93.3778 96.4549 93.5103 96.4378C92.9649 96.5159 92.7777 97.9249 93.3165 97.8229C94.0742 97.6799 94.3399 96.7152 94.0855 95.9225C93.6317 94.5082 91.9646 92.9445 91.6316 92.6106C90.8958 91.873 90.108 90.8886 89.0501 90.6381C89.035 90.6344 89.0189 90.631 89.004 90.6283C89.2616 90.3123 89.4504 89.9492 89.6285 89.5817C89.8119 89.2034 90.0328 88.7687 90.0546 88.3452C90.068 88.0754 89.7208 87.9675 89.595 88.2182C89.4122 88.584 89.3579 89.0241 89.2368 89.4158C89.1131 89.8131 88.9491 90.1944 88.8324 90.5943C88.4182 90.5233 87.9805 90.5226 87.54 90.5604C87.9963 89.7408 88.7546 88.1752 88.8444 87.9751C89.2567 87.049 89.6402 86.0998 90.0015 85.1521C90.3918 84.1255 90.7032 83.0688 91.07 82.0341C91.2782 81.4475 91.488 80.8559 91.7291 80.2817C91.8125 80.0847 91.9037 79.8867 92.0124 79.7032C92.0335 79.667 92.062 79.6352 92.0878 79.6004C92.1195 79.5772 92.1522 79.5517 92.1706 79.5382C92.336 79.4125 92.3683 79.166 92.4745 78.9984C92.644 78.7287 92.8764 78.6695 93.1784 78.6271C93.822 78.5373 94.4721 78.4792 95.1178 78.4138C96.067 78.3182 97.0165 78.2338 97.9676 78.1616C98.2555 78.1401 98.5422 78.1188 98.8303 78.0996C100.215 78.004 101.602 77.9338 102.988 77.8884C104.215 77.8478 105.451 77.8802 106.676 77.8142C105.537 81.9275 104.21 85.9932 102.626 89.9564C102.61 89.9965 102.599 90.036 102.594 90.0748ZM94.7799 101.302C94.5307 101.458 94.293 101.642 94.0758 101.845C94.0809 101.572 94.0544 101.288 94.0067 101.006C94.2316 101.192 94.5 101.281 94.7799 101.302ZM105.22 93.1317C105.202 93.1362 105.185 93.1484 105.179 93.1683C104.91 93.9716 105.172 94.7961 105.847 95.3115C106.201 95.5801 106.929 95.8407 106.972 96.3512C107.006 96.7642 106.604 97.1662 106.457 97.5296C106.32 97.8682 106.298 98.2233 106.485 98.5472C106.723 98.9617 107.255 99.0704 107.485 99.4784C107.776 99.9961 107.502 100.701 107.312 101.209C107.135 101.68 106.889 102.159 106.749 102.651C105.493 103.521 102.604 105.18 102.245 105.298C101.808 105.443 101.37 105.584 100.93 105.719C100.085 105.981 99.2365 106.231 98.3838 106.466C97.8983 106.599 97.4116 106.732 96.9231 106.85C96.4964 106.952 96.0168 107.078 95.626 106.797C94.8381 106.23 95.0898 105.077 95.4488 104.355C95.4559 104.341 95.4544 104.329 95.4496 104.318C95.8563 104.166 96.2598 103.997 96.6665 103.862C97.4489 103.604 98.24 103.37 99.034 103.15C100.665 102.698 102.318 102.325 103.969 101.952C104.377 101.859 104.298 101.207 103.885 101.3C101.512 101.829 99.127 102.349 96.8183 103.117C96.2393 103.308 95.6667 103.515 95.0997 103.737C94.8316 103.841 94.5485 103.987 94.2587 104.027C94.241 104.03 94.2233 104.032 94.2056 104.033C93.6349 104.089 93.4893 103.613 93.7494 103.168C93.7816 103.113 93.8149 103.058 93.8496 103.005C94.3165 102.276 94.9473 101.748 95.5971 101.202C96.3768 100.992 97.137 100.649 97.8912 100.372C99.7529 99.6874 101.615 99.0028 103.478 98.3192C103.843 98.1845 103.608 97.6269 103.243 97.7604C101.829 98.2786 100.414 98.7964 99 99.3145L96.9303 100.073C96.5167 100.224 96.0096 100.486 95.5175 100.62C95.2748 100.686 95.0359 100.721 94.8131 100.699C94.0931 100.623 93.9451 99.7548 94.1795 99.1972C94.442 98.571 95.0328 98.1244 95.5564 97.7213C96.4636 97.0219 97.4545 96.4755 98.413 95.8694C98.5889 95.8063 98.7647 95.7432 98.9406 95.6801C99.9636 95.3124 101.152 95.0435 102.088 94.4908C102.369 94.3266 102.146 93.8796 101.853 93.9241C101.086 94.04 100.317 94.4175 99.5864 94.6767C98.7958 94.9583 98.004 95.2389 97.2133 95.5193C97.1339 95.5475 96.6704 95.7644 96.5932 95.7396C96.544 95.7235 96.5067 95.5646 96.4775 95.4605C96.3827 95.1182 96.2991 94.7566 96.3081 94.3997C96.326 93.5996 96.9328 93.1465 97.5561 92.7598C98.9441 91.8996 100.507 91.2716 102.094 90.8961C102.46 90.8096 102.828 90.7376 103.199 90.6772C103.636 90.6074 103.987 90.4836 104.264 90.8865C104.701 91.5213 105.005 92.3707 105.22 93.1317ZM106.354 118.044C105.889 116.975 105.824 115.777 105.457 114.672C105.268 114.102 105.038 113.542 104.795 112.993C104.599 112.55 104.308 112.089 104.22 111.611C104.214 111.579 104.25 111.556 104.278 111.567C104.765 111.768 105.185 112.284 105.5 112.691C105.878 113.178 106.185 113.7 106.451 114.255C106.98 115.362 107.472 116.716 107.132 117.944C107.031 118.31 106.528 118.445 106.354 118.044ZM94.9015 128.074C94.3796 127.802 93.9705 127.38 93.5113 127.02C93.0597 126.666 93.6033 125.961 94.055 126.315C94.4468 126.622 94.8042 127.022 95.2486 127.254C95.4625 127.366 95.5853 127.601 95.4851 127.838C95.3965 128.046 95.1148 128.185 94.9015 128.074ZM90.5744 115.579C91.3996 115.088 92.206 114.565 93.0855 114.175C93.6111 113.942 93.9526 114.764 93.4301 114.996C92.6201 115.356 91.8783 115.832 91.1184 116.283C90.6305 116.573 90.0833 115.871 90.5744 115.579ZM81.3106 116.505C81.0288 116.005 81.854 115.668 82.1316 116.16C82.4513 116.727 82.8045 117.275 83.1242 117.842C83.4058 118.341 82.5808 118.679 82.3031 118.186C81.9834 117.619 81.6302 117.072 81.3106 116.505ZM73.5599 128.212C73.442 128.42 73.2179 128.553 72.9764 128.448C72.774 128.36 72.6207 128.075 72.74 127.865C73.0885 127.249 73.4433 126.64 73.8719 126.077C74.2195 125.62 74.9241 126.164 74.5768 126.62C74.194 127.124 73.8712 127.662 73.5599 128.212ZM64.6312 69.2928C65.0722 69.5173 65.4706 69.8078 65.8615 70.1091C66.3159 70.4594 65.772 71.1642 65.3176 70.8139C64.9883 70.5599 64.6559 70.3019 64.284 70.1127C64.0691 70.0033 63.9481 69.7639 64.0476 69.5291C64.1368 69.3188 64.4169 69.1838 64.6312 69.2928ZM79.7185 81.79C79.5486 82.2784 79.4004 82.7547 79.4547 83.2779C79.5141 83.8477 78.6312 83.962 78.5719 83.3918C78.5007 82.7072 78.6759 82.083 78.8986 81.4428C79.0869 80.9009 79.906 81.2504 79.7185 81.79ZM83.1086 69.7518C83.5424 69.3741 84.0827 70.0823 83.6527 70.4566C83.3041 70.76 82.9554 71.0636 82.6068 71.3671C82.1732 71.7447 81.6329 71.0366 82.0628 70.6623C82.4114 70.3588 82.76 70.0553 83.1086 69.7518ZM64.5915 92.4244C64.5829 92.9959 63.7013 92.8657 63.7098 92.2996C63.7231 91.4248 63.7653 90.5577 63.8903 89.6911C63.9721 89.124 64.8538 89.2481 64.7719 89.816C64.6469 90.6826 64.6047 91.5496 64.5915 92.4244ZM62.8013 102.938C62.2315 102.999 62.1174 102.116 62.6873 102.055C63.203 101.999 63.7261 102.069 64.2381 102.129C64.8077 102.196 64.6823 103.077 64.1133 103.011C63.6804 102.96 63.2373 102.891 62.8013 102.938ZM64.288 123.458C64.105 123.578 63.9157 123.689 63.7301 123.805C63.3582 124.037 62.9865 124.269 62.6151 124.501C61.8412 124.985 61.0679 125.47 60.2955 125.956C58.7493 126.929 57.187 127.878 55.6358 128.843C54.054 129.828 52.4779 130.822 50.9044 131.821C50.1631 132.291 49.414 132.748 48.667 133.209C48.0283 133.603 47.2591 134.248 46.521 134.394C46.483 134.402 46.464 134.355 46.4826 134.327C46.7226 133.971 47.1474 133.727 47.4902 133.471C47.8405 133.21 48.1994 132.961 48.5562 132.708C49.2999 132.182 50.0451 131.66 50.7986 131.147C52.3057 130.123 53.8166 129.105 55.328 128.087C56.8694 127.049 58.408 126.006 59.9677 124.996C60.702 124.52 61.4373 124.045 62.1731 123.572C62.5718 123.315 62.9707 123.059 63.3696 122.803C63.5419 122.692 63.7115 122.575 63.8891 122.473C64.1251 122.338 64.3173 122.335 64.5662 122.238C64.9722 122.08 65.2226 122.59 64.9306 122.864C64.6902 123.089 64.5719 123.271 64.288 123.458ZM59.5624 133.272C59.4433 133.063 59.5985 132.771 59.8006 132.689C60.0427 132.591 60.2634 132.717 60.3835 132.927C60.7015 133.485 61.116 133.981 61.6187 134.38C62.0679 134.736 61.5245 135.441 61.0749 135.084C60.445 134.584 59.9592 133.967 59.5624 133.272ZM53.3969 119.659C52.9425 119.309 53.4864 118.604 53.9407 118.954L55.2326 119.951C55.687 120.301 55.1431 121.006 54.6889 120.656L53.3969 119.659ZM41.4169 119.309C40.6254 119.657 39.6946 120.002 39.2243 120.776C39.2013 120.814 39.1496 120.776 39.1617 120.74C39.6876 119.159 41.6793 118.371 43.0377 117.665C43.9984 117.166 44.9936 116.727 46.0017 116.319C45.7438 115.142 45.8668 113.829 45.8139 112.632C45.7574 111.354 45.6806 110.074 45.5615 108.8C45.44 107.5 45.2829 106.196 45.0733 104.907C44.8645 103.623 44.5326 102.371 44.2935 101.095C44.2704 100.972 44.4427 100.944 44.4932 101.041C45.0804 102.178 45.436 103.476 45.7394 104.715C46.0518 105.992 46.2668 107.277 46.4164 108.583C46.5701 109.925 46.6647 111.272 46.7302 112.621C46.7612 113.261 46.784 113.9 46.8101 114.54C46.83 115.028 46.8722 115.51 46.8341 115.99C47.4434 115.754 48.0553 115.527 48.6657 115.303C50.6122 114.592 52.5712 113.913 54.5045 113.166C55.4536 112.799 56.3824 112.387 57.3251 112.006C58.2127 111.647 59.1447 111.23 60.074 111.001C60.4057 110.919 60.5079 111.374 60.3053 111.559C59.6082 112.196 58.6384 112.702 57.7919 113.118C56.9423 113.535 56.0466 113.872 55.1647 114.213C53.3255 114.925 51.4574 115.555 49.5942 116.2C47.7335 116.844 45.8689 117.486 44.0418 118.22C43.1619 118.574 42.2852 118.928 41.4169 119.309ZM33.8604 96.2709C33.4061 96.6229 32.8638 95.9168 33.3165 95.566C33.9088 95.1072 34.5554 94.7364 35.2084 94.3718C35.7095 94.0922 36.0471 94.917 35.553 95.193C34.9662 95.5205 34.3927 95.8586 33.8604 96.2709ZM36.314 129.302C35.858 129.652 35.3154 128.946 35.7701 128.597C36.4087 128.108 37.1301 127.744 37.8002 127.301C38.2769 126.986 38.8222 127.691 38.3441 128.006C37.6741 128.449 36.9526 128.813 36.314 129.302ZM33.1103 110.786C33.6453 111.177 34.3088 111.308 34.9392 111.468C35.4888 111.608 35.3697 112.491 34.8143 112.35C34.0289 112.15 33.233 111.978 32.5665 111.491C32.1029 111.152 32.6479 110.448 33.1103 110.786ZM35.1188 84.8186C35.6692 84.9565 35.5499 85.8396 34.994 85.7003C34.3773 85.5459 33.7486 85.4488 33.132 85.2944C32.5817 85.1565 32.7009 84.2734 33.2568 84.4126C33.8735 84.5671 34.5022 84.6641 35.1188 84.8186ZM43.1231 73.5741C43.6676 73.4085 44.0145 74.2288 43.4677 74.3953C42.7893 74.6019 42.1241 74.827 41.4991 75.1664C40.9945 75.4404 40.6564 74.6159 41.1545 74.3454C41.7795 74.006 42.4448 73.7807 43.1231 73.5741ZM49.3523 97.6322C48.8095 97.4471 49.1592 96.6282 49.6995 96.8124C50.269 97.0065 50.85 97.1384 51.4503 97.1874C52.022 97.2341 51.8948 98.1157 51.3255 98.0691C50.6498 98.0138 49.9927 97.8506 49.3523 97.6322ZM50.477 83.483C51.0071 83.2615 51.3495 84.0834 50.8216 84.3041C49.8927 84.6922 48.919 84.9573 47.9794 85.3173C47.4438 85.5224 47.1001 84.701 47.6348 84.4962C48.5744 84.1362 49.5482 83.8712 50.477 83.483ZM62.2318 77.5713C62.804 77.6026 62.6756 78.4841 62.107 78.453C61.5017 78.4199 60.9023 78.4955 60.3029 78.5725C59.7339 78.6458 59.6209 77.7627 60.189 77.6896C60.8699 77.6021 61.5445 77.5338 62.2318 77.5713ZM102.984 77.0007C101.523 77.0489 100.064 77.125 98.6069 77.229C98.539 77.2342 98.4723 77.2385 98.4045 77.2437C98.3949 77.2294 98.3831 77.2162 98.371 77.2021C97.8093 76.5699 97.3723 75.9218 96.9698 75.177C96.5855 74.4682 96.207 73.7351 95.6765 73.1191C95.0715 72.4174 94.3109 71.9054 93.495 71.4819C93.0803 71.8459 92.705 72.2579 92.3683 72.6866C92.0139 73.1378 91.3089 72.5941 91.6634 72.1429C91.9626 71.7618 92.2882 71.4035 92.6385 71.0725C92.1571 70.8589 91.6687 70.6627 91.1916 70.4665C89.4035 69.7313 87.5851 69.0728 85.741 68.4941C84.8838 68.2242 84.022 67.9977 83.1542 67.7675C82.6871 67.6439 82.219 67.4675 81.7483 67.3152C81.7398 66.9975 81.6007 66.6586 81.3335 66.4833C81.1363 66.3551 80.991 66.3166 80.7653 66.237C80.7157 66.2264 80.6858 66.2202 80.6718 66.2164C80.682 66.2173 80.7119 66.2225 80.7612 66.2318C80.8806 66.2692 80.8874 66.2525 80.782 66.1831C80.7534 66.0052 80.3525 65.6732 80.2483 65.4992C79.8863 64.9029 79.7128 64.2454 79.2246 63.7227C78.5516 63.0028 77.5549 62.8264 76.6967 63.2108C76.4809 62.2681 76.328 61.2748 75.8583 60.4691C75.8454 60.4474 75.8121 60.4414 75.801 60.4687C75.5082 61.1562 75.5681 61.8721 75.6345 62.613C75.6963 63.3085 75.8139 64.0126 75.9933 64.6884C75.9416 64.74 75.8885 64.7896 75.8331 64.8381C75.5726 65.0625 75.2844 65.2467 74.976 65.3954C74.3886 65.6776 73.7566 65.8489 73.1171 65.9629C71.4664 66.2567 69.7331 66.3099 68.0629 66.2359C66.3736 66.1611 63.785 66.0554 62.2083 65.4185C61.1677 64.9986 60.1869 64.4486 59.1964 63.9211C59.3887 62.8192 59.3255 61.6694 58.8789 60.8171C58.8254 60.7152 58.6551 60.717 58.6394 60.848C58.5422 61.729 58.5923 62.5955 58.4254 63.4754C58.4225 63.4881 58.4199 63.502 58.417 63.5146C58.3234 63.4673 58.2299 63.4209 58.1364 63.3746C57.9208 63.269 57.6631 63.4022 57.5681 63.6051C56.0496 66.854 53.0535 67.4158 49.9531 68.3613C46.5601 69.3961 43.1556 70.4795 39.9687 72.0588C36.9211 73.5698 34.0795 75.5635 31.9733 78.2656C31.4965 78.8773 31.0597 79.52 30.6549 80.1843C31.1293 80.1828 31.6041 80.2147 32.0797 80.2993C32.6427 80.3994 32.5202 81.2815 31.9548 81.1809C31.3436 81.0722 30.738 81.0576 30.1322 81.0895C28.7811 83.5458 27.8303 86.256 27.0473 88.9039C25.5453 93.9809 24.8243 99.2742 24.8609 104.564C25.1828 104.31 25.5124 104.065 25.8526 103.832C26.3253 103.51 26.8698 104.214 26.3966 104.537C25.8711 104.896 25.3655 105.282 24.8803 105.692C24.9433 108.001 25.1498 110.307 25.4998 112.591C26.3337 118.035 27.7963 123.56 30.1364 128.555C31.2842 131.007 32.6953 133.403 34.5888 135.356C35.4457 136.24 36.3896 137.016 37.4624 137.626C37.982 137.922 38.5243 138.177 39.0876 138.378C39.8136 138.639 40.7157 138.639 41.3665 139.056C41.5806 139.194 41.7572 139.389 41.901 139.616C41.8951 140.083 41.9468 140.545 42.1318 140.987C42.1901 141.126 42.3133 141.229 42.4541 141.268C42.4615 141.307 42.4665 141.346 42.4713 141.383C42.4736 141.401 42.5006 141.402 42.5017 141.384C42.5028 141.349 42.5039 141.314 42.5049 141.278C42.5497 141.287 42.5959 141.288 42.6422 141.282C44.3194 141.072 45.9927 140.814 47.6639 140.541C47.4828 140.16 47.2913 139.784 47.105 139.403C46.852 138.887 47.6754 138.547 47.9261 139.059C48.144 139.503 48.3686 139.943 48.5757 140.39C50.3656 140.091 52.1533 139.779 53.9405 139.488C57.7415 138.868 61.5524 138.334 65.3605 137.761C71.2742 136.87 77.214 135.841 83.1855 135.327C83.3346 134.864 83.5096 134.409 83.672 133.95C83.8637 133.41 84.6829 133.759 84.4919 134.298C84.379 134.616 84.2601 134.931 84.1495 135.249C85.3604 135.156 86.5727 135.083 87.7863 135.041C89.8572 134.969 91.9276 135.049 93.9989 134.997C96.1048 134.945 98.1328 134.644 100.15 134.035C100.513 133.925 100.702 133.673 100.757 133.383C100.76 133.381 100.762 133.379 100.764 133.375C100.854 133.238 100.94 133.123 101.031 133.02C101.143 132.925 101.267 132.84 101.415 132.76C101.691 132.613 101.985 132.506 102.286 132.421C102.617 132.327 102.958 132.278 103.291 132.193C103.571 132.12 103.842 132.03 104.111 131.928C104.596 131.744 105.051 131.527 105.496 131.26C105.885 131.027 106.223 130.721 106.538 130.394C107.196 129.769 107.737 129.011 108.196 128.235C108.463 127.782 108.709 127.316 108.925 126.836C109.303 126.004 109.605 125.152 109.912 124.292C110.03 124.034 110.134 123.772 110.226 123.506C109.394 123.373 108.559 123.285 107.706 123.381C107.137 123.445 107.023 122.562 107.592 122.498C108.57 122.387 109.522 122.496 110.474 122.649C110.503 122.525 110.531 122.4 110.555 122.274C110.631 122.007 110.688 121.736 110.729 121.464C110.758 121.339 110.787 121.214 110.816 121.089C110.862 120.663 110.908 120.237 110.955 119.81C111.069 119.122 111.14 118.429 111.168 117.733C111.207 117.273 111.224 116.812 111.216 116.348C111.228 115.221 111.211 114.1 111.075 112.98C110.973 112.292 110.84 111.609 110.676 110.934C110.584 110.472 110.47 110.015 110.338 109.565C110.155 108.893 109.974 108.227 109.729 107.572C109.552 107.131 109.375 106.689 109.197 106.247C108.78 105.333 108.312 104.444 107.793 103.583C107.764 103.528 107.636 103.417 107.569 103.425C107.518 103.43 107.453 103.485 107.484 103.544C107.487 103.549 107.49 103.556 107.493 103.561C107.463 103.512 107.434 103.462 107.405 103.413C107.378 103.367 107.289 103.28 107.229 103.289C107.226 103.289 107.222 103.29 107.218 103.291C107.232 103.278 107.245 103.262 107.257 103.244C107.593 102.724 107.77 102.073 107.984 101.494C108.161 101.015 108.322 100.514 108.32 99.9996C108.319 99.5477 108.187 99.1193 107.861 98.7955C107.49 98.4271 106.867 98.3123 107.123 97.6779C107.414 96.9559 107.894 96.3005 107.242 95.607C106.91 95.2538 106.437 95.0973 106.062 94.8011C105.631 94.4585 105.382 93.9576 105.323 93.4211C105.348 93.4313 105.378 93.4208 105.384 93.3862C105.58 92.3781 105.211 91.3464 104.762 90.4472C104.517 89.9595 104.12 89.8681 103.677 89.8996C105.103 85.9287 106.399 81.914 107.49 77.8372C107.526 77.7034 107.562 77.5699 107.597 77.4362C107.65 77.2364 107.454 77.0049 107.26 76.9872C105.846 76.8634 104.401 76.9522 102.984 77.0007Z" fill="black"/>
<path fill-rule="evenodd" clip-rule="evenodd" d="M84.1455 34.5503C82.8412 27.7395 79.6092 20.2441 72.6182 17.7198C57.4166 13.7847 40.2992 30.8445 41.2191 45.8966C41.5276 51.0499 45.0841 56.2655 50.4501 57.0167C51.7995 58.3946 53.6624 59.1021 55.4869 59.6892C77.3449 67.6739 89.4631 57.326 84.1455 34.5503Z" fill="white"/>
<path fill-rule="evenodd" clip-rule="evenodd" d="M88.2612 29.6778C87.2777 27.7604 86.2554 25.8638 85.1953 23.9877C84.163 22.1619 83.2012 20.2847 81.9912 18.5747C74.7645 8.36134 64.1962 9.72534 58.9182 11.8629C55.9276 11.008 50.6657 12.0371 47.858 13.5193C43.3125 15.9188 38.3963 23.6846 36.8127 27.093C33.3162 34.6184 31.769 44.2337 35.7259 51.8975C36.243 52.8991 36.8552 53.8096 37.5241 54.6769C37.2394 55.1891 36.8994 55.6834 36.5155 56.1754C35.3749 57.6379 34.2288 59.0577 33.2876 60.6626C32.3522 62.2575 31.6207 63.9196 31.1474 65.7091C30.2549 69.084 30.6606 72.7226 32.7824 75.5591C34.6284 78.0271 37.5459 79.6658 40.569 79.4678C40.7257 79.4694 40.8824 79.4691 41.0392 79.4647C41.521 80.0679 42.0833 80.6079 42.704 81.0619C44.606 82.4545 48.7509 82.7599 51.061 82.5157C51.1913 82.5953 51.3227 82.6749 51.454 82.7533C53.0065 83.6805 54.6298 84.6087 56.3496 85.189C57.5146 85.5828 59.0092 85.8443 60.1027 85.3105C60.6661 85.5901 61.5076 85.4074 61.9853 85.0574C62.7705 84.4826 63.3498 83.5551 63.6573 82.6425C64.4025 80.4268 63.8641 78.1771 63.3162 75.9836C62.7118 73.5607 62.1183 71.1352 61.5204 68.7114C61.0525 66.8161 60.5706 64.8901 59.7465 63.1126C59.3202 62.1915 58.8049 61.32 58.1809 60.5186C58.1847 60.4441 58.1731 60.3715 58.1433 60.3058C57.9052 59.7823 57.5218 59.5412 57.0634 59.2233C57.0043 59.1827 56.945 59.141 56.8867 59.098C56.6513 58.8906 56.4036 58.7015 56.1447 58.5475C56.0424 58.4676 55.941 58.3864 55.8397 58.3053C54.9965 57.6231 54.1891 56.8959 53.4524 56.1001C52.738 55.3283 52.0771 54.5115 51.4407 53.6748C50.7934 52.8237 50.3126 51.8546 49.6673 51.01C49.6119 50.9375 49.4952 50.9368 49.4396 51.0102C49.298 51.2001 49.2174 51.4013 49.2628 51.5963L49.1827 51.6189C49.1133 51.325 48.8072 51.1176 48.4425 51.2309C47.8966 51.4001 47.4422 51.4958 46.9349 51.3727C46.9471 50.7978 46.9525 50.2226 46.9567 49.6465C46.9635 48.5865 46.96 47.5244 46.9376 46.4647C47.2186 46.4946 47.5011 46.5536 47.7814 46.6386C48.1806 46.7587 48.5664 46.94 48.9071 47.1799C49.2429 47.4171 49.4983 47.7622 49.8895 47.907C50.3395 48.0722 50.8014 47.6434 50.6162 47.1826C50.2414 46.2515 48.752 45.8827 47.8511 45.8139C47.5417 45.7898 47.2304 45.8031 46.9233 45.8495C46.9062 45.1695 46.8814 44.4905 46.8454 43.8118C46.8287 43.4909 46.8098 43.1702 46.7896 42.8485C47.445 42.5541 48.1676 42.398 48.8898 42.4035C49.1478 42.5599 49.4055 42.714 49.6559 42.8713C50.451 43.3723 51.2432 43.8771 52.028 44.394C52.099 44.4398 52.1688 44.4858 52.24 44.5327C52.7059 44.8394 53.1829 44.4144 53.0463 43.9125C51.9298 39.7997 54.0648 36.1379 56.7347 33.1701C59.69 29.8838 65.6906 28.771 69.005 23.3116C70.8735 23.4472 75.0805 24.0231 77.103 26.4796C79.9349 29.9222 80.0613 33.3179 80.7885 37.5438C81.5161 41.773 82.5432 46.1497 82.1187 50.467C81.727 54.448 79.7419 58.0624 76.1966 60.0638C76.1088 60.1133 76.0197 60.1618 75.9304 60.2093C74.0899 61.1885 72.0053 61.6673 69.9207 61.5459C67.6132 61.4106 65.5996 60.6226 63.5619 59.5964C63.4445 59.5386 63.3058 59.7069 63.4014 59.8045C66.2938 62.759 71.2865 63.2266 75.0233 61.8657C75.1979 61.8017 75.371 61.7345 75.5424 61.663C75.0011 64.2495 75.5251 66.9443 76.9574 69.2099C77.8189 70.573 79.0094 71.6951 80.3898 72.5234C81.9112 73.4355 83.7377 74.0952 84.8932 75.5023C85.9516 76.7917 85.8946 78.4013 84.4971 79.4052C84.145 79.6594 84.085 80.3415 84.4978 80.5844C84.6555 80.6762 84.8135 80.7703 84.9745 80.8617C85.8974 81.3877 88.3611 82.2815 88.741 82.2774C92.1137 82.2426 94.0327 79.5153 95.0927 76.4534C96.3377 72.8594 95.3695 68.8004 93.1025 65.8234C91.284 63.4349 88.0301 61.2698 88.7719 57.854C89.0363 56.6339 89.7566 55.53 90.4651 54.5252C91.2733 53.3808 92.1606 52.2924 92.9256 51.1166C93.6859 49.9491 94.3328 48.7021 94.6061 47.3249C95.005 45.3122 94.4135 43.2679 93.6783 41.4049C92.1018 37.4053 90.2212 33.5011 88.2612 29.6778Z" fill="black"/>
</g>
<path fill-rule="evenodd" clip-rule="evenodd" d="M71.0183 56.7149C70.2374 56.508 69.5102 56.0886 68.9431 55.5062C68.7459 55.3037 68.6717 55.0726 68.679 54.8515C68.6873 54.6029 68.8029 54.3636 68.9802 54.1902C69.1581 54.0163 69.3951 53.9113 69.6383 53.9179C69.8495 53.9236 70.0703 54.0103 70.2638 54.2244L70.3039 54.267C70.6419 54.6192 71.058 54.8901 71.5118 55.0409C71.9491 55.1861 72.4216 55.2193 72.8912 55.1039C73.7856 54.8843 74.3478 54.3127 74.9267 53.5603C74.9982 53.4655 75.0695 53.3681 75.141 53.2692C75.183 53.1825 75.249 53.1218 75.3261 53.0844C75.4118 53.0429 75.5133 53.0315 75.6102 53.0519C75.7037 53.0716 75.7914 53.1204 75.8552 53.1923C75.9158 53.2605 75.9566 53.3493 75.961 53.4568C75.9893 54.1555 75.7077 54.8186 75.2572 55.3688C74.7568 55.98 74.0496 56.4494 73.3554 56.6716C72.5906 56.9164 71.7791 56.9165 71.0183 56.7149ZM62.0199 42.3053C61.9645 41.1505 63.6717 40.6662 63.9908 41.7749C64.2766 42.768 64.2142 43.7223 63.8756 44.6933C63.552 45.621 62.4036 45.3559 62.2183 44.5731C61.9699 43.5238 62.0544 43.0237 62.0199 42.3053ZM75.2051 40.0891C75.4067 39.7399 75.7291 39.4777 76.1648 39.5461C77.5259 39.7601 77.3796 41.6722 77.036 42.638C76.8492 43.1626 76.0562 43.3918 75.6347 43.0056C74.9475 42.3758 74.4799 41.0012 75.1477 40.2072C75.1636 40.1686 75.1818 40.1293 75.2051 40.0891ZM62.878 37.1098L63.0806 37.0468C63.7072 36.8532 64.4904 36.6438 65.0104 37.1006C65.2861 37.3428 65.4344 37.84 65.1449 38.1433C64.6357 38.6769 63.9841 38.5797 63.3077 38.7066C62.7504 38.8113 62.2227 38.9739 61.7018 39.1983C60.5589 39.6906 59.6719 40.4345 58.7462 41.2452C58.6248 41.3515 58.4671 41.199 58.5145 41.0664C58.9516 39.845 59.9639 38.7574 61.0254 38.037C61.592 37.6525 62.2225 37.3129 62.878 37.1098ZM73.363 35.2347L73.5258 35.2467C75.2981 35.3847 77.6333 35.8159 78.6693 37.4056C78.7314 37.6412 78.7051 37.6969 78.6827 37.7339L78.6752 37.7462C78.6569 37.7777 78.6444 37.8195 78.5447 37.8655C78.515 37.8624 78.4849 37.8588 78.4545 37.8549C78.0672 37.8051 77.7534 37.7081 77.4483 37.6048L77.1174 37.4917C76.7337 37.3613 76.3475 37.2378 75.9454 37.1617C75.0872 36.9993 74.2156 36.9195 73.3424 36.9294C73.1531 36.9316 72.9655 36.8919 72.8099 36.8023C72.6623 36.7173 72.5413 36.5888 72.4701 36.4065C72.378 36.1705 72.3716 35.9837 72.474 35.7469C72.5511 35.569 72.677 35.4363 72.8301 35.3497C72.9862 35.2615 73.1718 35.2215 73.363 35.2347Z" fill="black"/>
</svg>
